USFL
nRows=258
nColumns=2
inDegrees=yes
endheader
time	tib_ant_r	
2.49496	 58.982297	
2.52823	 58.972690	
2.56149	 58.963562	
2.59476	 58.947803	
2.62802	 58.928045	
2.66129	 58.953343	
2.69456	 58.962988	
2.72782	 58.962302	
2.76109	 58.961416	
2.79435	 58.962306	
2.82762	 58.951891	
2.86089	 59.019626	
2.89415	 58.993127	
2.92742	 58.978677	
2.96069	 59.014203	
2.99395	 58.954177	
3.02722	 58.927311	
3.06048	 58.911920	
3.09375	 58.887317	
3.12702	 58.896775	
3.16028	 58.927998	
3.19355	 58.944013	
3.22681	 58.900835	
3.26008	 58.925978	
3.29335	 58.949661	
3.32661	 58.960117	
3.35988	 58.975439	
3.39315	 58.971449	
3.42641	 58.951655	
3.45968	 58.958604	
3.49294	 58.983543	
3.52621	 59.001564	
3.55948	 59.006970	
3.59274	 58.958046	
3.62601	 58.912081	
3.65927	 58.857799	
3.69254	 58.809365	
3.72581	 58.777880	
3.75907	 58.703836	
3.79234	 58.632505	
3.8256	 58.635756	
3.85887	 58.593456	
3.89214	 58.567011	
3.9254	 58.569072	
3.95867	 58.569790	
3.99194	 58.558360	
4.0252	 58.509042	
4.05847	 58.472021	
4.09173	 58.451120	
4.125	 58.420255	
4.15827	 58.391189	
4.19153	 58.383425	
4.2248	 58.357813	
4.25806	 58.332532	
4.29133	 58.315802	
4.3246	 58.316059	
4.35786	 58.319419	
4.39113	 58.338246	
4.4244	 58.329799	
4.45766	 58.313738	
4.49093	 58.295867	
4.52419	 58.309972	
4.55746	 58.379063	
4.59073	 58.738168	
4.62399	 58.742278	
4.65726	 59.201079	
4.69052	 59.414155	
4.72379	 59.051934	
4.75706	 59.039739	
4.79032	 58.916554	
4.82359	 58.737069	
4.85685	 58.515276	
4.89012	 58.397106	
4.92339	 58.234747	
4.95665	 58.236100	
4.98992	 58.178099	
5.02319	 57.928320	
5.05645	 57.910147	
5.08972	 57.706417	
5.12298	 57.721939	
5.15625	 57.522719	
5.18952	 57.317330	
5.22278	 57.042956	
5.25605	 57.148555	
5.28931	 56.950152	
5.32258	 41.706692	
5.35585	 41.583616	
5.38911	 41.414244	
5.42238	 41.271203	
5.45565	 41.228831	
5.48891	 41.093089	
5.52218	 41.055381	
5.55544	 40.971190	
5.58871	 40.835274	
5.62198	 40.735841	
5.65524	 40.636537	
5.68851	 40.467126	
5.72177	 40.377929	
5.75504	 40.216723	
5.78831	 40.160439	
5.82157	 40.107844	
5.85484	 40.060810	
5.8881	 40.036998	
5.92137	 40.023237	
5.95464	 40.070674	
5.9879	 40.084220	
6.02117	 40.043342	
6.05444	 40.019208	
6.0877	 39.943129	
6.12097	 39.895285	
6.15423	 39.831981	
6.1875	 39.708423	
6.22077	 39.635743	
6.25403	 39.594219	
6.2873	 39.549653	
6.32056	 39.495833	
6.35383	 39.443508	
6.3871	 39.410035	
6.42036	 39.385440	
6.45363	 39.317891	
6.4869	 39.289304	
6.52016	 39.264814	
6.55343	 39.218344	
6.58669	 39.193472	
6.61996	 39.190625	
6.65323	 39.155010	
6.68649	 39.104819	
6.71976	 39.076002	
6.75302	 39.064854	
6.78629	 39.042814	
6.81956	 38.999172	
6.85282	 38.965500	
6.88609	 38.997906	
6.91935	 38.967348	
6.95262	 38.980341	
6.98589	 38.978341	
7.01915	 38.964817	
7.05242	 38.948277	
7.08569	 38.933051	
7.11895	 38.911232	
7.15222	 38.895274	
7.18548	 38.860622	
7.21875	 38.846947	
7.25202	 38.842757	
7.28528	 38.846607	
7.31855	 38.799022	
7.35181	 38.820574	
7.38508	 38.812312	
7.41835	 38.768731	
7.45161	 38.743681	
7.48488	 38.749170	
7.51815	 38.756742	
7.55141	 38.733331	
7.58468	 38.731014	
7.61794	 38.732470	
7.65121	 38.721934	
7.68448	 38.727084	
7.71774	 38.707155	
7.75101	 38.720666	
7.78427	 38.786603	
7.81754	 38.797703	
7.85081	 38.817286	
7.88407	 38.758021	
7.91734	 38.776471	
7.9506	 38.787540	
7.98387	 38.782657	
8.01714	 38.821846	
8.0504	 38.840865	
8.08367	 38.820690	
8.11694	 38.819621	
8.1502	 38.829943	
8.18347	 38.845773	
8.21673	 38.826391	
8.25	 38.737054	
8.28327	 38.711568	
8.31653	 38.717605	
8.3498	 38.728034	
8.38306	 38.733769	
8.41633	 38.724471	
8.4496	 38.726022	
8.48286	 38.719753	
8.51613	 38.718366	
8.5494	 38.715090	
8.58266	 38.705510	
8.61593	 38.687556	
8.64919	 38.694079	
8.68246	 38.698904	
8.71573	 38.682635	
8.74899	 38.695952	
8.78226	 38.726588	
8.81552	 38.756074	
8.84879	 38.759067	
8.88206	 38.731161	
8.91532	 38.700911	
8.94859	 38.679332	
8.98185	 38.693303	
9.01512	 38.723461	
9.04839	 38.717550	
9.08165	 38.720570	
9.11492	 38.722113	
9.14819	 38.741843	
9.18145	 38.774193	
9.21472	 38.743007	
9.24798	 38.715010	
9.28125	 38.710573	
9.31452	 38.700698	
9.34778	 38.709603	
9.38105	 38.729539	
9.41431	 38.778311	
9.44758	 38.852990	
9.48085	 38.868389	
9.51411	 38.880123	
9.54738	 38.858548	
9.58065	 38.878452	
9.61391	 38.872204	
9.64718	 38.904850	
9.68044	 38.954221	
9.71371	 38.816445	
9.74698	 38.738578	
9.78024	 38.604229	
9.81351	 39.570758	
9.84677	 39.458769	
9.88004	 39.391080	
9.91331	 39.524574	
9.94657	 44.104430	
9.97984	 44.273284	
10.0131	 44.217216	
10.0464	 44.275290	
10.0796	 44.250455	
10.1129	 44.293714	
10.1462	 44.333581	
10.1794	 44.317046	
10.2127	 44.349228	
10.246	 44.473642	
10.2792	 44.612286	
10.3125	 44.689535	
10.3458	 44.654162	
10.379	 44.768143	
10.4123	 44.798773	
10.4456	 44.812181	
10.4788	 44.891179	
10.5121	 45.056909	
10.5454	 45.143123	
10.5786	 45.338194	
10.6119	 45.617476	
10.6452	 45.637306	
10.6784	 45.802984	
10.7117	 45.936944	
10.745	 45.972167	
10.7782	 46.126622	
10.8115	 46.121643	
10.8448	 46.206702	
10.878	 46.281644	
10.9113	 46.298673	
10.9446	 46.346885	
10.9778	 46.372224	
11.0111	 46.369882	
11.0444	 46.422349	
